/* XPM */
static char *_2993769e5dc4131a80955b41fc37aafCtzysS8PsV3hv00S[] = {
/* columns rows colors chars-per-pixel */
"32 32 42 1 ",
"  c None",
". c #2E2828",
"X c #3B2E2D",
"o c #343131",
"O c #3E3A3A",
"+ c #433A3A",
"@ c #423F3F",
"# c #4A3D3D",
"$ c #4D403F",
"% c #484040",
"& c #4F4443",
"* c #574847",
"= c #5D5050",
"- c #5E5150",
"; c #595E5F",
": c #625656",
"> c #635C5C",
", c #766463",
"< c #746867",
"1 c #7D6A69",
"2 c #7E6D6C",
"3 c #7C7271",
"4 c #837170",
"5 c #877271",
"6 c #8F7E7C",
"7 c #94817F",
"8 c #828688",
"9 c #968180",
"0 c #9E8887",
"q c #988A88",
"w c #9D8A88",
"e c #A08A88",
"r c #B09F9E",
"t c #A9A0A0",
"y c #B6A3A1",
"u c #BBA7A6",
"i c #C3ADAB",
"p c #CCB5B3",
"a c #DAC3C1",
"s c #E0C7C5",
"d c #E3CAC8",
"f c #E3CBC9",
/* pixels */
"       . . .                    ",
"      + 8 a a a 7 +             ",
"     6 B ` X.X.} ` B 6          ",
"    6 Q @.........o.@.Q 6       ",
"   + B #.o...........o.@.N +    ",
"  8 ( ~ ~ [ ......[ ! / ( 8     ",
". g L C 3 D @.@.@.L C 3 A g .   ",
"  e z i O j H k H x i # r e     ",
"  , d ; - b t u r x ; , h ,     ",
"  . r R E ( m Z Z ) E R r .     ",
"   & l W ..@.#.#...W l *        ",
"    @ 4 n I I I n 4 #           ",
"     6 q 1 2 1 q 5              ",
"    * K J I T I J K *           ",
"    $ q n ] m ` c q %           ",
"     . 9 H < A 9 .              ",
"      X & o % X                 ",
"                                ",
"                                ",
"                                ",
"                                ",
"                                ",
"                                ",
"                                ",
"                                ",
"                                ",  
"                                ",
"                                ",
"                                ", 
"                                ",
"                                ",
"                                ",
"                                ",
};
