/* XPM */
static char *c5b889ff46064700e7ef3617d3cfb7b0iJ9O2YjlDN9HmLJU[] = {
/* columns rows colors chars-per-pixel */
"64 64 100 2 ",
"   c None",
".  c black",
"X  c #040303",
"o  c #0B0909",
"O  c #0A0B0B",
"+  c #0E0B0B",
"@  c #090B0C",
"#  c #0B0C0C",
"$  c #141010",
"%  c #161313",
"&  c #151515",
"*  c #181515",
"=  c #1A1414",
"-  c #1C1A1A",
";  c #1B1C1C",
":  c #1E1C1C",
">  c #1D1E1F",
",  c #221918",
"<  c #2B2323",
"1  c #2E2423",
"2  c #302525",
"3  c #332E2E",
"4  c #2D2F30",
"5  c #3F3434",
"6  c #423736",
"7  c #443838",
"8  c #443938",
"9  c #433C3B",
"0  c #4D4140",
"q  c #4E4140",
"w  c #5A4644",
"e  c #5A4745",
"r  c #574949",
"t  c #53504F",
"y  c #54504F",
"u  c #595A5A",
"i  c #5D5E5E",
"p  c #604C4B",
"a  c #655352",
"s  c #665453",
"d  c #695150",
"f  c #695251",
"g  c #685554",
"h  c #695554",
"j  c #6A5E5D",
"k  c #6B5F5E",
"l  c #5E7174",
"z  c #756463",
"x  c #7C706F",
"c  c #7F706F",
"v  c #806F6D",
"b  c #806F6E",
"n  c #877271",
"m  c #8A7978",
"M  c #8E807F",
"N  c #94807F",
"B  c #94817F",
"V  c #858180",
"C  c #858181",
"Z  c #918584",
"A  c #988180",
"S  c #998180",
"D  c #998584",
"F  c #9E8D8C",
"G  c #9F8D8C",
"H  c #9F8E8D",
"J  c #A28A88",
"K  c #A58B8A",
"L  c #AB9594",
"P  c #AB9796",
"I  c #B99D9B",
"U  c #BA9D9C",
"Y  c #BA9E9D",
"T  c #BCA19F",
"R  c #94A9AD",
"E  c #ACAEAF",
"W  c #B1B3B5",
"Q  c #C3A9A7",
"!  c #C4AFAD",
"~  c #C5B0AE",
"^  c #C7B1AF",
"/  c #C8B2B0",
"(  c #CDB4B2",
")  c #CDB4B3",
"_  c #CEB4B2",
"`  c #D2B7B5",
"'  c #D1B8B6",
"]  c #D3B9B7",
"[  c #DBC3C1",
"{  c #DCC3C1",
"}  c #DFC4C2",
"|  c #DFC5C3",
" . c #DFC5C4",
".. c #DFC7C5",
"X. c #E0C8C6",
"o. c #E1C8C6",
"O. c #E2CAC8",
"+. c #E3CAC8",
"@. c #E3CBC9",
"#. c #E4CBC9",
/* pixels */
"                                                                                                                                ",
"                                                                                                                                ",
"                                                                                                                                ",
"                                                                                                                                ",
"                                                                                                                                ",
"                                                                                                                                ",
"                                                                                                                                ",
"                                                                                                                                ",
"                                                                                                                                ",
"                                                                                                                                ",
"                                                                                                                                ",
"                                                                                                                                ",
"                                                                                                                                ",
"                                                                                                                                ",
"                                                                                                                                ",
"                                                                                                                                ",
"                                                                                                                                ",
"                                                                                                                                ",
"                                                                                                                                ",
"                                                                                                                                ",
"                                                                                                                                ",
"                                                                                                                                ",
"                                                                                                                                ",
"                                                                                                                                ",
"                                                                                                                                ",
"                                                                  . . .                                                         ",
"                                                              + 8 a a a 7 +                                                     ",
"                                                            6 B ` X.X.} ` B 6                                                   ",
"                                                          6 Q @.........o.@.Q 6                                                 ",
"                                                        + B #.o...........o.@.N +                                               ",
"                                                        8 ( ~ ~ [ ......[ ! / ( 8                                               ",
"                                                      . g L C 3 D @.@.@.L C 3 A g .                                             ",
"                                                        e z i O j H k H x i # r e                                               ",
"                                                        , d ; - b t u r x ; , h ,                                               ",
"                                                        . r R E ( m Z Z ) E R r .                                               ",
"                                                          & l W ..@.#.#...W l *                                                 ",
"                                                            @ 4 n I I I n 4 #                                                   ",
"                                                              6 q 1 2 1 q 5                                                     ",
"                                                            * K J I T I J K *                                                   ",
"                                                            $ q n ] m ` c q %                                                   ",
"                                                              . 9 H < A 9 .                                                     ",
"                                                                X & o % X                                                       ",
"                                                                                                                                ",
"                                                                                                                                ",
"                                                                                                                                ",
"                                                                                                                                ",
"                                                                                                                                ",
"                                                                                                                                ",
"                                                                                                                                ",
"                                                                                                                                ",
"                                                                                                                                ",
"                                                                                                                                ",
"                                                                                                                                ",
"                                                                                                                                ",
"                                                                                                                                ",
"                                                                                                                                ",
"                                                                                                                                ",
"                                                                                                                                ",
"                                                                                                                                ",
"                                                                                                                                ",
"                                                                                                                                ",
"                                                                                                                                ",
"                                                                                                                                ",
"                                                                                                                                "
};
